<svg xmlns="http://www.w3.org/2000/svg" width="256" height="256" viewBox="0 0 100 100"><rect width="100" height="100" rx="20" fill="#7d6ee7"></rect><path fill="#fff" d="M27.66 55.84L27.66 55.84Q27.38 56.04 26.92 56.20Q26.46 56.36 25.90 56.36L25.90 56.36Q25.26 56.36 24.76 56.16Q24.26 55.96 24.06 55.52L24.06 55.52Q21.90 51.04 20.34 47.32Q18.78 43.60 17.82 41.16L17.82 41.16L17.66 41.16Q17.54 44.16 17.40 46.74Q17.26 49.32 17.10 51.78Q16.94 54.24 16.78 56.76Q16.62 59.28 16.46 62.16L16.46 62.16Q16.22 62.24 15.84 62.32Q15.46 62.40 15.02 62.40L15.02 62.40Q14.14 62.40 13.78 62.04Q13.42 61.68 13.42 61.00L13.42 61.00Q13.42 60.60 13.48 59.28Q13.54 57.96 13.66 56.08Q13.78 54.20 13.92 51.92Q14.06 49.64 14.24 47.28Q14.42 44.92 14.60 42.64Q14.78 40.36 14.94 38.48L14.94 38.48Q15.26 38.20 15.86 37.96Q16.46 37.72 17.22 37.72L17.22 37.72Q19.06 37.72 19.78 39.20L19.78 39.20Q20.54 40.76 21.32 42.50Q22.10 44.24 22.88 46.04Q23.66 47.84 24.40 49.60Q25.14 51.36 25.82 52.96L25.82 52.96L25.98 52.96Q26.86 50.84 27.74 48.78Q28.62 46.72 29.46 44.80Q30.30 42.88 31.06 41.20Q31.82 39.52 32.42 38.12L32.42 38.12Q32.78 37.92 33.34 37.82Q33.90 37.72 34.38 37.72L34.38 37.72Q36.26 37.72 36.54 39L36.54 39Q36.70 39.72 36.90 41.38Q37.10 43.04 37.30 45.20Q37.50 47.36 37.68 49.84Q37.86 52.32 38.02 54.62Q38.18 56.92 38.30 58.86Q38.42 60.80 38.50 61.92L38.50 61.92Q37.78 62.40 36.82 62.40L36.82 62.40Q36.22 62.40 35.76 62.10Q35.30 61.80 35.22 61.00L35.22 61.00Q35.02 58.08 34.86 55.20Q34.70 52.32 34.56 49.72Q34.42 47.12 34.30 44.94Q34.18 42.76 34.10 41.24L34.10 41.24L33.94 41.24Q33.50 42.36 32.92 43.76Q32.34 45.16 31.56 46.92Q30.78 48.68 29.82 50.90Q28.86 53.12 27.66 55.84ZM62.06 49.72L62.06 49.72Q62.06 47.16 61.28 45.34Q60.50 43.52 59.16 42.36Q57.82 41.20 56.04 40.66Q54.26 40.12 52.22 40.12L52.22 40.12Q50.94 40.12 50 40.20Q49.06 40.28 48.26 40.44L48.26 40.44L48.26 59.48Q49.22 59.72 50.32 59.80Q51.42 59.88 52.58 59.88L52.58 59.88Q57.30 59.88 59.68 57.32Q62.06 54.76 62.06 49.72ZM65.38 49.72L65.38 49.72Q65.38 53 64.48 55.42Q63.58 57.84 61.92 59.44Q60.26 61.04 57.90 61.82Q55.54 62.60 52.62 62.60L52.62 62.60Q51.34 62.60 49.74 62.50Q48.14 62.40 46.70 61.96L46.70 61.96Q45.02 61.44 45.02 60.12L45.02 60.12L45.02 39.56Q45.02 38.92 45.34 38.58Q45.66 38.24 46.34 38.04L46.34 38.04Q47.58 37.64 49.14 37.52Q50.70 37.40 52.26 37.40L52.26 37.40Q55.18 37.40 57.60 38.18Q60.02 38.96 61.74 40.50Q63.46 42.04 64.42 44.34Q65.38 46.64 65.38 49.72ZM77.82 59.96L77.82 59.96Q80.50 59.96 81.88 58.74Q83.26 57.52 83.26 55.60L83.26 55.60Q83.26 53.92 82.20 52.88Q81.14 51.84 78.86 51.16L78.86 51.16L75.38 50.12Q72.82 49.36 71.36 47.88Q69.90 46.40 69.90 43.88L69.90 43.88Q69.90 42.36 70.48 41.14Q71.06 39.92 72.14 39.08Q73.22 38.24 74.72 37.78Q76.22 37.32 78.10 37.32L78.10 37.32Q79.70 37.32 81.08 37.58Q82.46 37.84 83.48 38.30Q84.50 38.76 85.06 39.32Q85.62 39.88 85.62 40.48L85.62 40.48Q85.62 41.04 85.34 41.44Q85.06 41.84 84.62 42.08L84.62 42.08Q83.58 41.28 81.92 40.68Q80.26 40.08 78.22 40.08L78.22 40.08Q75.86 40.08 74.52 41.08Q73.18 42.08 73.18 43.88L73.18 43.88Q73.18 45.28 74.14 46.16Q75.10 47.04 77.34 47.68L77.34 47.68L79.78 48.40Q82.94 49.32 84.76 50.98Q86.58 52.64 86.58 55.60L86.58 55.60Q86.58 58.76 84.30 60.72Q82.02 62.68 77.82 62.68L77.82 62.68Q75.98 62.68 74.48 62.36Q72.98 62.04 71.92 61.52Q70.86 61.00 70.28 60.38Q69.70 59.76 69.70 59.16L69.70 59.16Q69.70 58.48 70.12 58.02Q70.54 57.56 71.10 57.36L71.10 57.36Q71.54 57.80 72.18 58.26Q72.82 58.72 73.66 59.10Q74.50 59.48 75.54 59.72Q76.58 59.96 77.82 59.96Z"></path></svg>